<svg xmlns="http://www.w3.org/2000/svg" xmlns:xlink="http://www.w3.org/1999/xlink" viewBox="2306 23 342 43.638">
  <defs>
    <style>
      .cls-1, .cls-10, .cls-11 {
        fill: #fff;
      }

      .cls-1 {
        stroke: #707070;
      }

      .cls-2 {
        clip-path: url(#clip-path);
      }

      .cls-3 {
        fill: #74542e;
      }

      .cls-4 {
        fill: #d8a159;
      }

      .cls-5 {
        fill: #ffa300;
      }

      .cls-6 {
        fill: #f5a209;
      }

      .cls-7 {
        fill: #eeeded;
      }

      .cls-8 {
        fill: #fbb429;
      }

      .cls-9 {
        fill: #ecf0f1;
      }

      .cls-11 {
        font-size: 41px;
        font-family: Arciform, Arciform Sans;
      }

      .cls-12 {
        fill: none;
      }
    </style>
    <clipPath id="clip-path">
      <ellipse id="Ellipse_1" data-name="Ellipse 1" class="cls-1" cx="19.977" cy="19.977" rx="19.977" ry="19.977" transform="translate(0)"/>
    </clipPath>
  </defs>
  <g id="Group_11" data-name="Group 11" transform="translate(1990)">
    <g id="Mask_Group_1" data-name="Mask Group 1" class="cls-2" transform="translate(316 23)">
      <g id="biology_1_" data-name="biology (1)" transform="translate(0)">
        <path id="Path_5" data-name="Path 5" class="cls-3" d="M19.977,0A19.977,19.977,0,1,1,0,19.977,19.977,19.977,0,0,1,19.977,0Z"/>
        <path id="Path_6" data-name="Path 6" class="cls-4" d="M148.764,228.579h7.827v.682h-7.827Zm0,3.647h7.827v.682h-7.827Zm0-1.824h7.827v.682h-7.827Z" transform="translate(-137.155 -210.742)"/>
        <path id="Path_7" data-name="Path 7" class="cls-5" d="M148.764,125.29h7.827v.682h-7.827Zm0,3.647h7.827v.682h-7.827Zm0-1.823h7.827v.682h-7.827Z" transform="translate(-137.155 -115.513)"/>
        <g id="Group_1" data-name="Group 1" transform="translate(12.261 5.936)">
          <path id="Path_8" data-name="Path 8" class="cls-4" d="M157.121,427.867h6.523v-.682h-6.523v.682Z" transform="translate(-157.121 -399.786)"/>
          <path id="Path_9" data-name="Path 9" class="cls-4" d="M157.121,76.075h6.523v.682h-6.523Z" transform="translate(-157.121 -76.075)"/>
        </g>
        <path id="Path_10" data-name="Path 10" class="cls-5" d="M148.764,332.429h7.827v.682h-7.827Zm0,3.647h7.827v.682h-7.827Zm0-1.823h7.827v.682h-7.827Z" transform="translate(-137.155 -306.488)"/>
        <path id="Path_11" data-name="Path 11" class="cls-4" d="M137.212,84.586a7.239,7.239,0,0,1,3.681,1.654,4.243,4.243,0,0,1,0,6.236,7.24,7.24,0,0,1-3.681,1.654,4.022,4.022,0,0,0-2.759,1.649h-1.639a5.163,5.163,0,0,1,4.13-3.077,5.838,5.838,0,0,0,2.959-1.29,2.8,2.8,0,0,0,0-4.108,5.837,5.837,0,0,0-2.959-1.29c-6.032-1.135-5.972-8.446,0-9.569a5.842,5.842,0,0,0,2.959-1.29,2.8,2.8,0,0,0,0-4.108,5.838,5.838,0,0,0-2.959-1.29,5.128,5.128,0,0,1-4.224-3.32H134.3a3.92,3.92,0,0,0,2.907,1.892,7.239,7.239,0,0,1,3.681,1.654,4.243,4.243,0,0,1,0,6.236,7.24,7.24,0,0,1-3.681,1.654c-4.409.829-4.409,5.883,0,6.713h0Z" transform="translate(-122.108 -61.253)"/>
        <path id="Path_12" data-name="Path 12" class="cls-6" d="M139.312,84.586a7.239,7.239,0,0,0-3.681,1.654,4.243,4.243,0,0,0,0,6.236,7.239,7.239,0,0,0,3.681,1.654,4.022,4.022,0,0,1,2.758,1.649h1.639a5.164,5.164,0,0,0-4.13-3.077,5.837,5.837,0,0,1-2.959-1.29,2.8,2.8,0,0,1,0-4.108,5.837,5.837,0,0,1,2.959-1.29c5.995-1.128,5.965-8.447,0-9.569a5.842,5.842,0,0,1-2.959-1.29,2.8,2.8,0,0,1,0-4.108,5.837,5.837,0,0,1,2.959-1.29,5.129,5.129,0,0,0,4.224-3.32h-1.585a3.919,3.919,0,0,1-2.907,1.892,7.238,7.238,0,0,0-3.681,1.654,4.243,4.243,0,0,0,0,6.236,7.24,7.24,0,0,0,3.681,1.654c4.409.829,4.409,5.883,0,6.713h0Z" transform="translate(-123.788 -61.253)"/>
        <path id="Path_13" data-name="Path 13" class="cls-7" d="M185.854,153.6a7.9,7.9,0,0,1,7.987,12.794l3.682,3.634-.765.754-3.671-3.623a7.9,7.9,0,1,1-7.233-13.56Zm.233.89h0a6.979,6.979,0,1,0,8.518,4.985,6.979,6.979,0,0,0-8.518-4.985Z" transform="translate(-165.909 -141.373)"/>
        <path id="Path_14" data-name="Path 14" class="cls-5" d="M196.966,165.362a6.979,6.979,0,1,1-4.985,8.518A6.978,6.978,0,0,1,196.966,165.362Z" transform="translate(-176.789 -152.247)"/>
        <path id="Path_15" data-name="Path 15" class="cls-3" d="M222.1,179.087a7.59,7.59,0,0,1,0-13.938,6.98,6.98,0,1,1,0,13.938h0Z" transform="translate(-200.537 -152.251)"/>
        <path id="Path_16" data-name="Path 16" class="cls-8" d="M350.992,322.421l1.662-1.639a.638.638,0,0,1,.9.006l7.929,8.022a.638.638,0,0,1-.006.9l-1.662,1.639a.638.638,0,0,1-.9-.006l-7.929-8.022a.638.638,0,0,1,.007-.9Z" transform="translate(-323.429 -295.582)"/>
        <g id="Group_2" data-name="Group 2" transform="translate(14.964 12.992)">
          <path id="Path_17" data-name="Path 17" class="cls-4" d="M192.544,213.368h7.031v1.06H192.1A7,7,0,0,1,192.544,213.368Zm.162,6.729h0a6.93,6.93,0,0,1-.5-1.06h7.372v1.06Zm-.915-2.834h0a6.96,6.96,0,0,1-.023-1.06h7.808v1.06Z" transform="translate(-191.758 -209.71)"/>
          <path id="Path_18" data-name="Path 18" class="cls-4" d="M226.335,179.234a11.443,11.443,0,0,1,2.014.883A7.007,7.007,0,0,1,226.335,179.234Zm2.57-12.747h0a11.3,11.3,0,0,1-3.125,1.4,6.954,6.954,0,0,1,2.559-1.273Q228.622,166.536,228.906,166.487Z" transform="translate(-223.126 -166.487)"/>
        </g>
        <path id="Path_19" data-name="Path 19" class="cls-6" d="M221.836,183.737c5.769-2.877,5.653-10.485-.274-13.213a6.934,6.934,0,0,0-2.465,1.538c6.26,1.468,6.323,8.637.189,10.219A7.019,7.019,0,0,0,221.836,183.737Z" transform="translate(-202 -157.217)"/>
        <path id="Path_20" data-name="Path 20" class="cls-9" d="M196.963,165.5a7.009,7.009,0,0,1,1.381-.218c-.081.035-.16.071-.24.108q-.244.045-.487.109a6.979,6.979,0,0,0,.49,13.613q.118.056.237.108a6.979,6.979,0,0,1-1.382-13.721h0Z" transform="translate(-176.785 -152.381)"/>
        <path id="Path_21" data-name="Path 21" class="cls-10" d="M288.133,170.918a6.385,6.385,0,0,0-1.27-.2c.074.032.147.066.22.1q.224.042.448.1.289.076.564.177a6.449,6.449,0,0,1-.028,12.186,6.374,6.374,0,0,1-.987.27c-.072.035-.145.068-.218.1a6.485,6.485,0,0,0,1.271-12.733Z" transform="translate(-264.477 -157.394)"/>
        <path id="Path_22" data-name="Path 22" class="cls-6" d="M357.664,353.576l-6.751-6.829a.7.7,0,0,1-.069-.082.638.638,0,0,0,.135.687l6.417,6.492,1.513,1.53a.639.639,0,0,0,.712.134.679.679,0,0,1-.172-.127Z" transform="translate(-323.423 -319.613)"/>
      </g>
    </g>
    <text id="kruwannee" class="cls-11" transform="translate(371.188 56.638)"><tspan x="0" y="0">kruwannee</tspan></text>
    <rect id="Rectangle_10" data-name="Rectangle 10" class="cls-12" width="33" height="33" transform="translate(625 28)"/>
  </g>
</svg>
